# xmcd
#
# Track frame offsets: 
#        150
#        17970
#        38890
#        49843
#        66880
#        83709
#        98986
#        116279
#        140263
#        149561
#        169538
#        179666
#        203356
#        219937
#        234736
#        247304
#        266319
#        278657
#        289372
#        312717
#        336072
#
# Disc length: 4711 seconds
#
# Revision: 0
# Processed by: cddbd v1.5PL3 Copyright (c) Steve Scherf et al.
# Submitted via: ExactAudioCopy v0.95a5
#
DISCID=3f126515
DTITLE=Женщина с Бородой - Сборник Подпольных Записей
DYEAR=2003
DGENRE=Blues
TTITLE0=Небо из стекла
TTITLE1=Брюки
TTITLE2=На коротком проводке
TTITLE3=На кончике ножа
TTITLE4=Мышиные хвостики
TTITLE5=Блюз ДК
TTITLE6=Небо из стекла
TTITLE7=Рельсы
TTITLE8=Умка рок-н-ролл
TTITLE9=Танькина
TTITLE10=Иволга
TTITLE11=Рельсы
TTITLE12=Дорога в небо
TTITLE13=Я буду помнить
TTITLE14=Хэйда
TTITLE15=Искры костров
TTITLE16=Сибирь
TTITLE17=Математический реггей
TTITLE18=Танькина
TTITLE19=Всеобщая любовь
TTITLE20=Я стал тобой
EXTD=
EXTT0=
EXTT1=
EXTT2=
EXTT3=
EXTT4=
EXTT5=
EXTT6=
EXTT7=
EXTT8=
EXTT9=
EXTT10=
EXTT11=
EXTT12=
EXTT13=
EXTT14=
EXTT15=
EXTT16=
EXTT17=
EXTT18=
EXTT19=
EXTT20=
PLAYORDER=
